<?xml version="1.0" standalone="no"?>
<!DOCTYPE svg PUBLIC "-//W3C//DTD SVG 20010904//EN"
 "http://www.w3.org/TR/2001/REC-SVG-20010904/DTD/svg10.dtd">
<svg version="1.0" xmlns="http://www.w3.org/2000/svg"
 width="1024.000000pt" height="1024.000000pt" viewBox="0 0 1024.000000 1024.000000"
 preserveAspectRatio="xMidYMid meet">

<g transform="translate(0.000000,1024.000000) scale(0.100000,-0.100000)"
fill="#000000" stroke="none">
<path d="M6085 10156 c-55 -18 -137 -51 -183 -74 -92 -47 -243 -151 -266 -183
-7 -11 -43 -44 -77 -74 -84 -70 -269 -252 -344 -339 -82 -96 -113 -138 -170
-231 -26 -44 -60 -98 -75 -120 -15 -22 -66 -112 -113 -200 -146 -274 -184
-352 -242 -497 -26 -62 -61 -149 -80 -193 -43 -101 -142 -382 -190 -540 -20
-66 -39 -126 -41 -134 -8 -24 -12 -10 -34 114 -59 330 -153 526 -304 637 -52
37 -145 40 -196 5 -73 -49 -206 -270 -234 -389 -9 -34 -24 -101 -35 -148 -37
-156 -54 -292 -55 -443 l-1 -148 -75 2 c-142 4 -492 -43 -645 -86 -27 -8 -99
-27 -160 -44 -60 -16 -155 -45 -210 -64 -151 -52 -481 -221 -623 -319 -24 -17
-46 -27 -49 -25 -3 3 -1 28 5 54 6 26 13 135 16 241 4 107 10 224 16 260 24
170 30 230 30 325 0 56 5 118 11 137 6 19 14 72 19 117 5 46 15 116 24 155 9
40 25 118 36 173 11 55 26 129 35 165 8 36 22 124 30 195 8 72 21 159 30 195
14 59 48 235 76 395 6 33 17 89 24 125 23 111 34 182 40 260 3 41 15 125 27
185 24 129 18 183 -35 325 -25 69 -41 95 -82 135 -144 141 -329 85 -539 -164
-139 -165 -154 -190 -286 -476 -63 -137 -148 -407 -185 -585 -7 -36 -25 -113
-39 -172 -14 -59 -26 -122 -26 -140 0 -18 -7 -62 -15 -98 -13 -59 -27 -169
-55 -443 -5 -54 -10 -180 -10 -280 0 -177 4 -246 39 -620 9 -98 14 -180 11
-182 -3 -2 -34 54 -69 123 -154 305 -336 536 -480 610 -35 18 -69 32 -77 32
-8 0 -43 -13 -79 -29 -77 -35 -89 -56 -130 -214 -26 -102 -27 -116 -22 -265 3
-86 10 -173 15 -192 5 -19 15 -60 21 -90 43 -199 66 -280 120 -430 46 -129
140 -319 185 -375 18 -22 54 -71 81 -110 63 -89 154 -201 194 -239 36 -34 39
-54 12 -87 -33 -42 -109 -156 -165 -247 -67 -108 -224 -428 -241 -491 -7 -25
-34 -106 -60 -180 -81 -231 -101 -328 -144 -696 -25 -218 -11 -619 26 -725 8
-25 24 -83 35 -130 29 -122 98 -329 123 -370 12 -19 41 -73 65 -120 55 -109
80 -146 176 -253 44 -49 99 -115 124 -147 96 -124 151 -189 185 -214 19 -15
78 -76 131 -136 59 -68 131 -136 187 -179 51 -38 99 -78 108 -88 9 -10 33 -33
53 -52 81 -73 91 -95 91 -190 -1 -73 -5 -95 -29 -146 -16 -33 -36 -71 -46 -85
-20 -30 -90 -198 -121 -290 -14 -43 -23 -101 -26 -171 -6 -125 9 -194 58 -252
33 -40 115 -86 190 -106 71 -19 355 -9 514 18 169 30 405 33 515 9 41 -9 98
-21 125 -27 165 -31 251 -54 455 -121 145 -49 263 -81 415 -114 66 -15 145
-33 176 -41 171 -45 520 -74 672 -56 207 26 234 30 293 46 32 9 85 23 117 31
32 8 71 21 87 29 16 8 38 15 50 15 27 0 187 60 299 112 132 61 148 68 156 68
4 0 50 24 104 54 53 29 128 65 166 79 104 39 293 86 355 89 97 4 252 -12 345
-37 50 -13 137 -36 195 -50 58 -14 129 -35 158 -45 29 -11 62 -20 72 -20 20 0
256 -72 295 -91 279 -127 684 -257 900 -289 98 -15 367 2 490 31 268 63 456
129 675 238 96 49 193 94 215 101 71 22 353 169 505 263 195 121 433 331 476
422 29 60 31 122 7 196 -39 124 -198 224 -493 311 -19 5 -93 29 -165 53 -71
23 -145 46 -164 50 -19 4 -86 30 -150 57 -64 27 -143 61 -176 75 -219 92 -539
300 -705 459 -98 94 -239 213 -294 250 -22 13 -48 45 -169 202 -15 19 -47 54
-70 76 -39 37 -139 159 -192 233 -112 157 -222 402 -300 668 -49 166 -140 455
-155 490 -4 11 -16 47 -25 80 -9 33 -32 101 -50 150 -18 50 -42 117 -53 150
-31 90 -98 252 -136 325 -178 349 -253 490 -303 565 -127 193 -260 354 -380
462 -44 40 -92 90 -108 113 -15 22 -93 95 -173 162 -79 67 -170 146 -201 175
-31 29 -126 97 -211 150 -85 53 -171 109 -190 124 -34 26 -109 64 -290 145
-47 21 -90 42 -97 47 -17 12 -2 40 112 211 55 81 105 156 110 165 29 47 119
190 137 216 11 17 41 64 66 105 26 42 74 108 107 148 33 40 70 91 83 114 31
54 120 187 177 264 25 33 45 63 45 66 0 28 155 253 263 382 38 44 71 88 75 96
3 8 24 42 48 75 83 118 224 368 224 396 0 6 22 50 48 98 52 92 89 182 154 375
39 114 41 128 42 241 1 105 -2 127 -23 178 -26 64 -67 102 -152 142 -48 22
-66 25 -169 24 -101 -1 -127 -5 -215 -33z"/>
</g>
</svg>
